# xmcd
#
# Track frame offsets: 
#        150
#        11099
#        23249
#        34473
#        46253
#        58880
#        68607
#        79010
#        93114
#        103639
#        114065
#        127560
#        140169
#        152539
#        165625
#        176214
#        186212
#        197870
#        209792
#        221960
#        234540
#        244866
#
# Disc length: 3425 seconds
#
# Revision: 1
# Processed by: cddbd v1.5.2PL0 Copyright (c) Steve Scherf et al.
# Submitted via: ExactAudioCopy v1.1
#
DISCID=380d5f16
DTITLE=Cliffie Stone - Sings ''The Grunt Song'' and Other Country Clas
DTITLE=sics
DYEAR=2003
DGENRE=Country
TTITLE0=The Grunt Song
TTITLE1=Jump Rope Boogie
TTITLE2=The Board Of Education
TTITLE3=The Hokey Pokey
TTITLE4=Square Dance Boogie
TTITLE5=Daughter Of Jolie Blon
TTITLE6=Dirty Dishes
TTITLE7=Manana (Is Soon Enough For Me)
TTITLE8=Fire Ball Mail
TTITLE9=Tennessee Central (Number 9)
TTITLE10=Peepin Through The Keyhole (Watching Jole Blon)
TTITLE11=Silver Stars, Purple Sage, Eyes Of Blue
TTITLE12=China Doll
TTITLE13=When My Blue Moon Turns To Gold Again
TTITLE14=Everyone's Sweetheart And Nobody's Gal
TTITLE15=Cream Of Kentucky
TTITLE16=Sugar Pie
TTITLE17=So Long To This Red River Valley
TTITLE18=Watch It, Neighbor
TTITLE19=Sugar Hill
TTITLE20=B-One Baby
TTITLE21=Spanish Bells
EXTD=
EXTT0=
EXTT1=
EXTT2=
EXTT3=
EXTT4=
EXTT5=
EXTT6=
EXTT7=
EXTT8=
EXTT9=
EXTT10=
EXTT11=
EXTT12=
EXTT13=
EXTT14=
EXTT15=
EXTT16=
EXTT17=
EXTT18=
EXTT19=
EXTT20=
EXTT21=
PLAYORDER=
